<?xml version="1.0" standalone="no"?><!DOCTYPE svg PUBLIC "-//W3C//DTD SVG 1.1//EN" "http://www.w3.org/Graphics/SVG/1.1/DTD/svg11.dtd"><svg t="1585659303214" class="icon" viewBox="0 0 1024 1024" version="1.1" xmlns="http://www.w3.org/2000/svg" p-id="610" xmlns:xlink="http://www.w3.org/1999/xlink" width="200" height="200"><defs><style type="text/css"></style></defs><path d="M371.126552 425.457971l59.761082 0 0 63.165622-11.765975 10.526751 11.765975 9.909697 0 46.753837-21.055548 20.435425-13.933337 0 0 10.836813-24.772196 11.455913L371.126552 425.457971 371.126552 425.457971zM395.898749 488.62257l10.217712 0 0-42.729174-10.217712 0L395.898749 488.62257 395.898749 488.62257zM395.898749 509.059018l0 46.753837 10.217712 0 0-46.753837L395.898749 509.059018 395.898749 509.059018zM434.603259 425.457971l107.447151 0-8.05035 21.36561-1.548262 0 0 129.425721-23.532973 22.293749-19.197224 0 0-21.055548 17.3389 0L507.060501 446.823582l-72.457242 0L434.603259 425.457971 434.603259 425.457971zM440.797331 463.23332l60.071144 0 0 94.746898-21.36561 19.817348-38.706557 0L440.796308 463.23332 440.797331 463.23332zM464.329281 558.290279l13.006222 0 0-75.240635L464.329281 483.049644 464.329281 558.290279 464.329281 558.290279zM564.964282 579.345828l66.265216 0 0-15.482623-64.405869 0 0-19.196201 64.405869 0 0-18.887163-64.405869 0 0-100.32187 161.015184 0 0 78.027098-28.486798 22.294772-37.776372 0 0 18.887163 67.811432 0-9.598612 19.196201-58.21282 0 0 15.482623 70.907956 0-8.66945 19.196201L564.964282 598.542029 564.964282 579.345828 564.964282 579.345828zM631.229498 444.345134l-35.300994 0 0 21.98471 35.300994 0L631.229498 444.345134 631.229498 444.345134zM631.229498 484.906945l-35.300994 0 0 22.293749 35.300994 0L631.229498 484.906945 631.229498 484.906945zM698.731892 444.345134l-37.157271 0 0 21.98471 35.298947 0-8.360412 18.577101-26.938536 0 0 22.293749 37.157271 0L698.731892 444.345134 698.731892 444.345134zM755.707534 425.457971l169.994696 0-11.455913 22.912849L755.707534 448.370821 755.707534 425.457971 755.707534 425.457971zM924.772045 598.542029l-19.198248-76.169797L874.92066 522.372232l13.004175 53.256948L791.316543 575.629179l28.486798-64.712861 94.442976 0 10.836813-22.911826L755.707534 488.004493l0 22.911826 32.202423 0-30.964222 67.191308 0 20.434401 128.193661 0 4.953825-14.242376 3.406586 14.242376L924.772045 598.542029 924.772045 598.542029zM924.772045 598.542029" p-id="611"></path><path d="M321.361125 442.603467c6.491855 36.953633 6.491855 101.121072 0 138.823765-4.494361 26.715455-10.237155 32.958646-37.453007 37.70167-37.451984 5.992481-100.621698 6.492878-138.822742-0.249687-26.966165-4.743024-32.708959-10.237155-37.453007-37.451984-6.741541-37.20332-6.741541-100.871385 0-138.823765 4.744048-26.715455 10.237155-32.708959 37.453007-37.451984 37.202297-6.740518 101.121072-6.490831 138.822742 0.249687C310.874283 410.145218 316.617078 415.638325 321.361125 442.603467L321.361125 442.603467 321.361125 442.603467 321.361125 442.603467zM179.541119 429.371094c-11.984962 0-21.972431 9.737782-21.972431 21.722744 0 12.234649 9.986445 21.972431 21.972431 21.972431 3.994987 0 7.740288-0.998747 10.986215-2.996241 22.971178-13.233396 24.968671-13.731746 48.189535 0.249687 3.245927 1.747807 6.991228 2.996241 10.986215 2.996241 11.983939 0 21.722744-9.736758 21.722744-21.972431 0-11.984962-9.488095-21.972431-21.722744-21.972431-3.994987 0-7.740288 1.248434-10.986215 2.996241-23.720238 13.483082-24.470321 13.483082-48.189535 0C187.281407 430.369841 183.536107 429.371094 179.541119 429.371094L179.541119 429.371094 179.541119 429.371094 179.541119 429.371094zM284.657178 533.98778c11.984962 0 21.722744-9.737782 21.722744-21.972431 0-11.984962-9.737782-21.722744-21.722744-21.722744-3.994987 0-7.740288 0.998747-10.986215 2.746554-23.220864 13.233396-32.208563 11.235902-51.434439 3.245927l-2.996241-0.997724c-1.49812-0.499373-2.996241-0.74906-4.744048-0.74906-1.24741 0-2.746554 0.249687-4.493338 0.499373l-2.996241 1.24741c-20.47431 7.989975-27.964912 10.237155-51.684126-3.495614-3.245927-1.747807-6.991228-2.746554-10.736529-2.746554-12.234649 0-21.972431 9.737782-21.972431 21.722744 0 12.234649 9.737782 21.972431 21.722744 21.972431 3.994987 0 7.740288-0.998747 10.986215-2.996241 21.972431-12.734022 33.706683-11.735275 38.201044-7.740288 1.747807 0.998747 0.249687 2.496867-3.495614 7.240915-5.742794 6.741541-17.727757 16.4783-28.463262 26.466792-4.494361 4.243651-6.741541 9.488095-6.741541 15.72924 0 12.234649 9.737782 21.972431 21.722744 21.972431 2.746554 0 5.492084-0.499373 8.239662-1.24741 20.973684-5.742794 37.951357-15.730263 48.937572-20.973684 2.996241-1.747807 1.248434 0.74906 4.244674 7.989975 1.99647 5.493108 8.489348 13.732769 17.977443 14.481829 14.481829 1.49812 22.471804-10.986215 19.225877-22.721491-3.994987-14.232143-18.476817-24.468275-33.707706-18.475793-16.229636 6.741541-30.711466 9.987468-46.690392 9.987468-2.996241-0.249687-2.746554-1.248434-1.998517-2.996241 1.998517-7.240915 14.233166-27.964912 28.465309-34.95614 14.481829-6.741541 26.715455-9.237385 52.1835 5.493108C276.667204 532.739347 280.412504 533.98778 284.657178 533.98778L284.657178 533.98778 284.657178 533.98778zM284.657178 533.98778" p-id="612"></path></svg>